<?xml version="1.0" encoding="UTF-8" standalone="no"?>
<svg width="261px" height="37px" viewBox="0 0 261 37" version="1.1" xmlns="http://www.w3.org/2000/svg" xmlns:xlink="http://www.w3.org/1999/xlink">
    <!-- Generator: Sketch 3.8.2 (29753) - http://www.bohemiancoding.com/sketch -->
    <title>Group 8</title>
    <desc>Created with Sketch.</desc>
    <defs>
        <polygon id="path-1" points="0 0.534167361 0 11.8332091 9.70683182 11.8332091 9.70683182 0.534167361 5.53979394e-20 0.534167361"></polygon>
        <polygon id="path-3" points="0 12.8110357 157.928264 12.8110357 157.928264 0.000199576821 0 0.000199576821"></polygon>
        <polygon id="path-5" points="0.00812437825 19.1704624 30.1927141 19.1704624 30.1927141 0.0166372227 0.00812437825 0.0166372227"></polygon>
    </defs>
    <g id="Page-1" stroke="none" stroke-width="1" fill="none" fill-rule="evenodd">
        <g id="Group-8">
            <g id="Page-1-Copy" transform="translate(102.651679, 7.531253)">
                <g id="Group-3" transform="translate(0.000000, 0.836426)">
                    <mask id="mask-2" fill="white">
                        <use xlink:href="#path-1"></use>
                    </mask>
                    <g id="Clip-2"></g>
                    <path d="M2.94484269,6.39673647 L4.89771578,6.39673647 C5.54867347,6.39673647 6.04838825,6.24006866 6.39788202,5.92773094 C6.7483977,5.61539322 6.92212268,5.16235383 6.92212268,4.56861279 C6.92212268,3.98485059 6.74635388,3.5447837 6.39481629,3.24541847 C6.04225678,2.94505535 5.54356392,2.79537274 4.89771578,2.79537274 L2.94484269,2.79537274 L2.94484269,6.39673647 Z M8.47951597,1.55899433 C9.29704526,2.24154706 9.70683182,3.21348618 9.70683182,4.4738138 C9.70683182,5.79800601 9.29704526,6.82582663 8.47951597,7.55827356 C7.66198668,8.29171838 6.51642377,8.65794185 5.04282723,8.65794185 L2.94484269,8.65794185 L2.94484269,11.8332091 L-0.000306573484,11.8332091 L-0.000306573484,0.534167361 L5.04282723,0.534167361 C6.51642377,0.534167361 7.66198668,0.876441608 8.47951597,1.55899433 L8.47951597,1.55899433 Z" id="Fill-1" fill="#FFFFFF" mask="url(#mask-2)"></path>
                </g>
                <path d="M15.6492478,10.5817626 C15.9905663,10.3612302 16.2041458,10.0718438 16.2910083,9.71460132 L16.2910083,8.94223903 L14.491422,8.94223903 C14.0611972,8.94223903 13.7382731,9.01807822 13.5226498,9.16776084 C13.3080483,9.31744345 13.2007476,9.55493987 13.2007476,9.88025009 C13.2007476,10.2005709 13.3100922,10.4530356 13.5308251,10.6366462 C13.751558,10.8202569 14.0611972,10.9120622 14.4587208,10.9120622 C14.9114277,10.9120622 15.3069074,10.802295 15.6492478,10.5817626 M18.0660688,4.67628449 C18.7435962,5.23011016 19.0879804,6.00147458 19.0981995,6.98937984 L19.0981995,12.6693362 L16.306337,12.6693362 L16.306337,11.6684584 C16.0212237,12.0366776 15.647204,12.3160852 15.1853,12.5076789 C14.722374,12.6992727 14.1868923,12.7950696 13.5788549,12.7950696 C12.6438058,12.7950696 11.8998541,12.5436028 11.3480219,12.0396713 C10.7972115,11.5347419 10.5212954,10.8781342 10.5212954,10.0698481 C10.5212954,9.23960849 10.8156059,8.59597324 11.4052489,8.13894232 C11.99387,7.68191141 12.8400128,7.44840653 13.9426554,7.43842768 L16.2910083,7.43842768 L16.2910083,7.3116964 C16.2910083,6.88160835 16.144875,6.54432353 15.8546521,6.30283557 C15.5644292,6.06134762 15.1311386,5.94060364 14.5558024,5.94060364 C14.1797389,5.94060364 13.7566675,6.00247246 13.288632,6.12621009 C12.8216184,6.24994772 12.3556267,6.42956686 11.8927008,6.66606539 L11.0864125,4.82995864 C11.8119697,4.499659 12.5038039,4.25218374 13.1598712,4.08952863 C13.8159384,3.92587564 14.5016411,3.84504703 15.2180011,3.84504703 C16.4381636,3.84504703 17.3885414,4.12146092 18.0660688,4.67628449" id="Fill-4" fill="#FFFFFF"></path>
                <path d="M25.1824569,4.27054481 C25.6719525,3.99812245 26.2370697,3.85542502 26.8767863,3.84544618 L26.8767863,6.35811835 C26.7909457,6.34813951 26.6591191,6.34215221 26.4813065,6.34215221 C25.7772094,6.34215221 25.2008513,6.50979674 24.7542759,6.84309003 C24.3077005,7.17638332 24.0532445,7.6294227 23.9878422,8.20220818 L23.9878422,12.6697353 L21.1244459,12.6697353 L21.1244459,3.97117958 L23.9878422,3.97117958 L23.9878422,5.43707133 C24.2944157,4.93214197 24.6929612,4.54296717 25.1824569,4.27054481" id="Fill-6" fill="#FFFFFF"></path>
                <path d="M32.82329,12.6338115 C32.4032843,12.741583 31.979191,12.7954687 31.5489662,12.7954687 C30.6660346,12.7954687 29.9537622,12.5569744 29.4101052,12.0789879 C28.8664482,11.6010014 28.5956417,10.9204445 28.5956417,10.0383149 L28.5956417,6.20145055 L27.3529971,6.20145055 L27.3529971,4.37232899 L28.5956417,4.37232899 L28.5956417,1.95445581 L31.435534,1.95445581 L31.435534,4.35736073 L33.7675363,4.35736073 L33.7675363,6.20145055 L31.435534,6.20145055 L31.435534,9.60423534 C31.435534,10.2398875 31.6991872,10.5582125 32.2264936,10.5582125 C32.5330671,10.5582125 32.9121963,10.4604199 33.3638812,10.2658325 L33.9289983,12.2047213 C33.6111838,12.3833426 33.2432957,12.52604 32.82329,12.6338115" id="Fill-8" fill="#FFFFFF"></path>
                <mask id="mask-4" fill="white">
                    <use xlink:href="#path-3"></use>
                </mask>
                <g id="Clip-11"></g>
                <path d="M35.3571198,12.6693362 L38.2051875,12.6693362 L38.2051875,3.97078042 L35.3571198,3.97078042 L35.3571198,12.6693362 Z M37.8781758,0.413323596 C38.1612453,0.689737492 38.3022691,1.04298846 38.3022691,1.47307651 C38.3022691,1.90416245 38.1612453,2.2584113 37.8781758,2.53781885 C37.5961282,2.81523063 37.2343715,2.95493441 36.7929056,2.95493441 C36.3524617,2.95493441 35.9917269,2.81523063 35.7117232,2.53781885 C35.4327413,2.2584113 35.2927394,1.90416245 35.2927394,1.47307651 C35.2927394,1.04298846 35.4327413,0.689737492 35.7117232,0.413323596 C35.9917269,0.137907583 36.3524617,0.000199576821 36.7929056,0.000199576821 C37.2343715,0.000199576821 37.5961282,0.137907583 37.8781758,0.413323596 L37.8781758,0.413323596 Z" id="Fill-10" fill="#FFFFFF" mask="url(#mask-4)"></path>
                <path d="M46.0596001,9.99051628 C46.4223787,9.57040707 46.604279,9.02157081 46.604279,8.34400751 C46.604279,7.67642304 46.4223787,7.13357409 46.0596001,6.712467 C45.6968215,6.29335568 45.216523,6.08280213 44.6197267,6.08280213 C44.0219084,6.08280213 43.5436537,6.29036202 43.1829189,6.70548181 C42.8232061,7.1206016 42.6372181,7.6664442 42.626999,8.34400751 C42.6372181,9.02157081 42.824228,9.57040707 43.1870066,9.99051628 C43.5497852,10.4106255 44.0280398,10.6201811 44.6197267,10.6201811 C45.216523,10.6201811 45.6968215,10.4106255 46.0596001,9.99051628 L46.0596001,9.99051628 Z M49.460522,12.6698351 L46.604279,12.6698351 L46.604279,11.5272578 C45.9533213,12.3674762 45.0601706,12.7855897 43.9258487,12.7796023 C43.0970784,12.7796023 42.3694773,12.5920001 41.7430455,12.2167957 C41.1166137,11.8405934 40.6301837,11.3137106 40.2827338,10.6371452 C39.9352838,9.95958187 39.7625808,9.17424708 39.7625808,8.28114081 C39.7625808,7.39901126 39.93324,6.62365531 40.2745585,5.95706873 C40.615877,5.28948427 41.0961754,4.77357819 41.7154539,4.4083526 C42.3337104,4.04312702 43.0490485,3.86051423 43.8614683,3.86051423 C44.4470236,3.86051423 44.9712643,3.96828571 45.4352121,4.18382868 C45.8971162,4.39937165 46.2874864,4.71170937 46.604279,5.12084185 L46.604279,0.693230087 L49.460522,0.693230087 L49.460522,12.6698351 Z" id="Fill-12" fill="#FFFFFF" mask="url(#mask-4)"></path>
                <path d="M54.5079478,6.71276636 C54.1390377,7.13287557 53.9550936,7.67672241 53.9550936,8.34330899 C53.9550936,9.02187018 54.1390377,9.56771278 54.5079478,9.98283257 C54.875836,10.3969545 55.3561344,10.6045144 55.9478213,10.6045144 C56.5343985,10.6045144 57.0116312,10.3969545 57.3805413,9.98283257 C57.7484295,9.56771278 57.9323736,9.02187018 57.9323736,8.34330899 C57.9323736,7.67672241 57.7484295,7.13287557 57.3805413,6.71276636 C57.0116312,6.29265716 56.5343985,6.08310149 55.9478213,6.08310149 C55.3561344,6.08310149 54.875836,6.29265716 54.5079478,6.71276636 M58.4934031,4.42362023 C59.2332671,4.7898437 59.8034938,5.30774555 60.2040831,5.98031943 C60.6046725,6.65289332 60.8059891,7.43024503 60.8059891,8.31237458 C60.8059891,9.19450413 60.6046725,9.97185585 60.2040831,10.6444297 C59.8034938,11.3170036 59.2332671,11.8378991 58.4934031,12.2081141 C57.7535391,12.5783291 56.9053524,12.7639356 55.9478213,12.7639356 C54.980071,12.7639356 54.1298405,12.5783291 53.3981518,12.2081141 C52.6664631,11.8378991 52.0962364,11.3170036 51.6874717,10.6444297 C51.2787071,9.97185585 51.0743248,9.19450413 51.0743248,8.31237458 C51.0743248,7.43024503 51.2787071,6.65289332 51.6874717,5.98031943 C52.0962364,5.30774555 52.6664631,4.7898437 53.3981518,4.42362023 C54.1298405,4.05939253 54.980071,3.87677974 55.9478213,3.87677974 C56.9053524,3.87677974 57.7535391,4.05939253 58.4934031,4.42362023" id="Fill-13" fill="#FFFFFF" mask="url(#mask-4)"></path>
                <path d="M67.4298157,4.10080472 C68.0593133,4.2714429 68.6479344,4.51492663 69.1967009,4.830258 L68.2207753,6.63443246 C67.1181327,6.05166815 66.1820617,5.7592881 65.4125622,5.7592881 C65.148909,5.7592881 64.9373733,5.81117808 64.778977,5.91296226 C64.6205807,6.01574432 64.5408716,6.16442905 64.5408716,6.35801857 C64.5408716,6.56258481 64.6624791,6.72723568 64.9046721,6.85097331 C65.1458433,6.97471094 65.5413231,7.11241895 66.0900896,7.26409733 C66.7195872,7.43772917 67.2448497,7.61235888 67.6638335,7.78798649 C68.0838392,7.96461197 68.4466178,8.23204491 68.7531913,8.59228107 C69.0597648,8.95151935 69.2130515,9.41852911 69.2130515,9.9903167 C69.2130515,10.8624674 68.8656015,11.5450201 68.1717236,12.0389728 C67.4778456,12.5329254 66.5744757,12.7794028 65.461614,12.7794028 C64.7135747,12.7794028 63.9921051,12.6746249 63.299249,12.4650693 C62.605371,12.2545157 61.9942679,11.9521568 61.4669615,11.5579926 L62.3703313,9.77776739 C62.8659585,10.1240332 63.391221,10.392464 63.9481629,10.582062 C64.5051047,10.7706621 65.033433,10.8644632 65.5341697,10.8644632 C65.8295021,10.8644632 66.0645418,10.814569 66.2403106,10.7117869 C66.4140356,10.6090048 66.50192,10.4603201 66.50192,10.2657327 C66.50192,10.0412088 66.3752029,9.86358542 66.1227908,9.73386049 C65.8693567,9.60613132 65.4748988,9.46542966 64.9363514,9.3127534 C64.3180949,9.14011945 63.8050952,8.96548973 63.3993963,8.78886424 C62.9936974,8.61323664 62.6431817,8.34979524 62.3498931,8.00153368 C62.0576264,7.65227425 61.9104711,7.19125179 61.9104711,6.61846632 C61.9104711,5.74631561 62.24668,5.06575865 62.9190979,4.57779332 C63.5915157,4.089828 64.4632063,3.84534639 65.5341697,3.84534639 C66.1687768,3.84534639 66.8003182,3.93016654 67.4298157,4.10080472" id="Fill-14" fill="#FFFFFF" mask="url(#mask-4)"></path>
                <path d="M73.7717992,7.23316292 L75.7246723,7.23316292 C76.37563,7.23316292 76.8753448,7.07649512 77.2248385,6.7641574 C77.5753542,6.45181967 77.7490792,5.99878029 77.7490792,5.40503925 C77.7490792,4.82127705 77.5733104,4.38121016 77.2217728,4.08184493 C76.8692133,3.78148181 76.3705204,3.63179919 75.7246723,3.63179919 L73.7717992,3.63179919 L73.7717992,7.23316292 Z M79.3064725,2.39542079 C80.1240018,3.07797352 80.5327664,4.04991263 80.5327664,5.31024026 C80.5327664,6.63443246 80.1240018,7.66225309 79.3064725,8.39470002 C78.4889432,9.12814484 77.3433803,9.4943683 75.8697837,9.4943683 L73.7717992,9.4943683 L73.7717992,12.6696355 L70.8266499,12.6696355 L70.8266499,1.37059382 L75.8697837,1.37059382 C77.3433803,1.37059382 78.4889432,1.71286806 79.3064725,2.39542079 L79.3064725,2.39542079 Z" id="Fill-15" fill="#FFFFFF" mask="url(#mask-4)"></path>
                <path d="M87.0451025,2.98646754 L84.866387,2.98646754 L86.6169216,0.275216436 L89.1992922,1.16632694 L87.0451025,2.98646754 Z M90.7239843,12.6699349 L87.8595661,12.6699349 L87.8595661,11.2359754 C87.2525506,12.2697834 86.2888879,12.7846916 84.9716439,12.7797021 C84.0028717,12.7797021 83.2292846,12.479339 82.6508826,11.8776149 C82.0724806,11.2758908 81.7843016,10.4686026 81.7843016,9.4547523 L81.7843016,3.97137916 L84.6405445,3.97137916 L84.6405445,8.66742175 C84.6405445,9.18232994 84.7744149,9.58747089 85.0441996,9.88384247 C85.3129623,10.1812119 85.6726752,10.3288988 86.1253821,10.3288988 C86.6629076,10.3189199 87.0870009,10.1233347 87.3956182,9.74214293 C87.7052574,9.3609512 87.8595661,8.86899433 87.8595661,8.26527445 L87.8595661,3.97137916 L90.7239843,3.97137916 L90.7239843,12.6699349 Z" id="Fill-16" fill="#FFFFFF" mask="url(#mask-4)"></path>
                <path d="M99.345546,9.91966651 C99.7134342,9.49456788 99.8973783,8.94772739 99.8973783,8.28114081 C99.8973783,7.61355634 99.7134342,7.06970951 99.345546,6.6496003 C98.9766359,6.22949109 98.4963375,6.01893755 97.9046506,6.01893755 C97.334424,6.01893755 96.8643446,6.22949109 96.4933907,6.6496003 C96.1214149,7.06970951 95.9364489,7.61355634 95.9364489,8.28114081 C95.9364489,8.95870412 96.1183491,9.50754037 96.4811278,9.92764958 C96.8439064,10.3477588 97.3190953,10.5583123 97.9046506,10.5583123 C98.4963375,10.5583123 98.9766359,10.3447651 99.345546,9.91966651 M100.785419,4.43230182 C101.420027,4.80251682 101.911566,5.32640598 102.257994,6.00396929 C102.604422,6.68153259 102.778147,7.46686738 102.778147,8.35897577 C102.778147,9.23212436 102.607488,10.001493 102.266169,10.6680796 C101.924851,11.3346662 101.444552,11.8515701 100.826296,12.2167957 C100.207018,12.5810234 99.4865698,12.7636362 98.663931,12.7636362 C98.0926824,12.7636362 97.5755951,12.6568626 97.1106253,12.4403218 C96.6446336,12.2257767 96.2532415,11.9154347 95.9364489,11.5112917 L95.9364489,12.6698351 L93.0802059,12.6698351 L93.0802059,0.693230087 L95.9364489,0.693230087 L95.9364489,5.12084185 C96.2532415,4.7226861 96.6385022,4.41433991 97.0901871,4.19979483 C97.541872,3.98425186 98.0446525,3.87648038 98.5985286,3.87648038 C99.4221894,3.87648038 100.150812,4.06208682 100.785419,4.43230182" id="Fill-17" fill="#FFFFFF" mask="url(#mask-4)"></path>
                <polygon id="Fill-18" fill="#FFFFFF" mask="url(#mask-4)" points="104.392359 12.6693362 107.248602 12.6693362 107.248602 0.693729029 104.392359 0.693729029"></polygon>
                <path d="M109.60513,12.6693362 L112.453197,12.6693362 L112.453197,3.97078042 L109.60513,3.97078042 L109.60513,12.6693362 Z M112.126186,0.413323596 C112.408233,0.689737492 112.549257,1.04298846 112.549257,1.47307651 C112.549257,1.90416245 112.408233,2.2584113 112.126186,2.53781885 C111.843116,2.81523063 111.482381,2.95493441 111.040916,2.95493441 C110.59945,2.95493441 110.238715,2.81523063 109.959733,2.53781885 C109.679729,2.2584113 109.539727,1.90416245 109.539727,1.47307651 C109.539727,1.04298846 109.679729,0.689737492 109.959733,0.413323596 C110.238715,0.137907583 110.59945,0.000199576821 111.040916,0.000199576821 C111.482381,0.000199576821 111.843116,0.137907583 112.126186,0.413323596 L112.126186,0.413323596 Z" id="Fill-19" fill="#FFFFFF" mask="url(#mask-4)"></path>
                <path d="M120.973181,4.38460296 C121.66195,4.72388356 122.199475,5.20586158 122.58678,5.83053703 L120.537847,7.03598103 C120.096381,6.43226114 119.496519,6.13289591 118.73826,6.13788533 C118.189494,6.13788533 117.741897,6.33846004 117.394447,6.74060733 C117.048019,7.14275462 116.874294,7.6716332 116.874294,8.32824094 C116.874294,8.99482752 117.043931,9.53069128 117.383206,9.93583223 C117.721458,10.3399753 118.173143,10.5425458 118.73826,10.5425458 C119.57725,10.5425458 120.182222,10.213244 120.553175,9.55663627 L122.634809,10.747112 C122.268965,11.392743 121.738593,11.8906872 121.041649,12.2399466 C120.344706,12.5892061 119.526154,12.7638358 118.584974,12.7638358 C117.681604,12.7638358 116.883491,12.5782293 116.192679,12.2080143 C115.500844,11.8377993 114.962297,11.3198975 114.574993,10.652313 C114.187688,9.98572644 113.993525,9.21635779 113.993525,8.34420708 C113.993525,7.46107965 114.187688,6.68173217 114.574993,6.00416886 C114.962297,5.32560767 115.504932,4.8027164 116.204942,4.4325014 C116.903929,4.0622864 117.710217,3.87667995 118.62585,3.87667995 C119.501628,3.87667995 120.284413,4.04532237 120.973181,4.38460296" id="Fill-20" fill="#FFFFFF" mask="url(#mask-4)"></path>
                <path d="M126.456146,6.71276636 C126.087236,7.13287557 125.903292,7.67672241 125.903292,8.34330899 C125.903292,9.02187018 126.087236,9.56771278 126.456146,9.98283257 C126.824034,10.3969545 127.304332,10.6045144 127.896019,10.6045144 C128.482596,10.6045144 128.959829,10.3969545 129.328739,9.98283257 C129.696627,9.56771278 129.880572,9.02187018 129.880572,8.34330899 C129.880572,7.67672241 129.696627,7.13287557 129.328739,6.71276636 C128.959829,6.29265716 128.482596,6.08310149 127.896019,6.08310149 C127.304332,6.08310149 126.824034,6.29265716 126.456146,6.71276636 M130.441601,4.42362023 C131.181465,4.7898437 131.751692,5.30774555 132.152281,5.98031943 C132.55287,6.65289332 132.754187,7.43024503 132.754187,8.31237458 C132.754187,9.19450413 132.55287,9.97185585 132.152281,10.6444297 C131.751692,11.3170036 131.181465,11.8378991 130.441601,12.2081141 C129.701737,12.5783291 128.85355,12.7639356 127.896019,12.7639356 C126.928269,12.7639356 126.078038,12.5783291 125.34635,12.2081141 C124.614661,11.8378991 124.044434,11.3170036 123.63567,10.6444297 C123.226905,9.97185585 123.022523,9.19450413 123.022523,8.31237458 C123.022523,7.43024503 123.226905,6.65289332 123.63567,5.98031943 C124.044434,5.30774555 124.614661,4.7898437 125.34635,4.42362023 C126.078038,4.05939253 126.928269,3.87677974 127.896019,3.87677974 C128.85355,3.87677974 129.701737,4.05939253 130.441601,4.42362023" id="Fill-21" fill="#FFFFFF" mask="url(#mask-4)"></path>
                <path d="M139.378014,4.10080472 C140.007511,4.2714429 140.596132,4.51492663 141.144899,4.830258 L140.168973,6.63443246 C139.066331,6.05166815 138.13026,5.7592881 137.36076,5.7592881 C137.097107,5.7592881 136.885571,5.81117808 136.727175,5.91296226 C136.568779,6.01574432 136.48907,6.16442905 136.48907,6.35801857 C136.48907,6.56258481 136.610677,6.72723568 136.85287,6.85097331 C137.094041,6.97471094 137.489521,7.11241895 138.038288,7.26409733 C138.667785,7.43772917 139.193048,7.61235888 139.612031,7.78798649 C140.032037,7.96461197 140.394816,8.23204491 140.701389,8.59228107 C141.007963,8.95151935 141.161249,9.41852911 141.161249,9.9903167 C141.161249,10.8624674 140.813799,11.5450201 140.119921,12.0389728 C139.426043,12.5329254 138.522674,12.7794028 137.409812,12.7794028 C136.661773,12.7794028 135.940303,12.6746249 135.247447,12.4650693 C134.553569,12.2545157 133.942466,11.9521568 133.415159,11.5579926 L134.318529,9.77776739 C134.814156,10.1240332 135.339419,10.392464 135.896361,10.582062 C136.453303,10.7706621 136.981631,10.8644632 137.482368,10.8644632 C137.7777,10.8644632 138.01274,10.814569 138.188509,10.7117869 C138.362234,10.6090048 138.450118,10.4603201 138.450118,10.2657327 C138.450118,10.0412088 138.323401,9.86358542 138.070989,9.73386049 C137.817555,9.60613132 137.423097,9.46542966 136.884549,9.3127534 C136.266293,9.14011945 135.753293,8.96548973 135.347594,8.78886424 C134.941895,8.61323664 134.59138,8.34979524 134.298091,8.00153368 C134.005824,7.65227425 133.858669,7.19125179 133.858669,6.61846632 C133.858669,5.74631561 134.194878,5.06575865 134.867296,4.57779332 C135.539714,4.089828 136.411404,3.84534639 137.482368,3.84534639 C138.116975,3.84534639 138.748516,3.93016654 139.378014,4.10080472" id="Fill-22" fill="#FFFFFF" mask="url(#mask-4)"></path>
                <path d="M144.166998,10.9833112 C144.363205,11.182888 144.461309,11.432359 144.461309,11.7317243 C144.461309,12.0420662 144.363205,12.2995203 144.166998,12.5040865 C143.970791,12.7086528 143.721445,12.8114349 143.419981,12.8114349 C143.124648,12.8114349 142.877346,12.7096507 142.678073,12.5080781 C142.4788,12.3055076 142.379675,12.0470556 142.379675,11.7317243 C142.379675,11.432359 142.4788,11.182888 142.678073,10.9833112 C142.877346,10.7837344 143.124648,10.6839459 143.419981,10.6839459 C143.721445,10.6839459 143.970791,10.7837344 144.166998,10.9833112" id="Fill-23" fill="#FFFFFF" mask="url(#mask-4)"></path>
                <path d="M152.324305,4.380811 C152.940518,4.62229896 153.452496,4.96956262 153.86126,5.42060624 L152.819932,6.61806716 C152.180216,5.97243615 151.36473,5.6491217 150.37552,5.6491217 C149.595801,5.6491217 148.954041,5.90258426 148.45126,6.40950939 C147.94848,6.91643451 147.69709,7.57703379 147.69709,8.39130721 C147.69709,9.19959334 147.941326,9.85919473 148.430822,10.3691135 C148.920318,10.8780344 149.54675,11.1334927 150.311139,11.1334927 C151.435242,11.1334927 152.298757,10.7892227 152.900663,10.1006827 L153.958342,11.1334927 C153.559796,11.6484009 153.044753,12.043563 152.413212,12.318979 C151.780648,12.5943951 151.054069,12.7331009 150.230408,12.7331009 C149.369959,12.7331009 148.602503,12.5504882 147.931107,12.1842647 C147.257668,11.820037 146.735471,11.3091203 146.361451,10.6525126 C145.987431,9.99590485 145.800422,9.24250235 145.800422,8.39130721 C145.800422,7.53013323 145.987431,6.76974555 146.361451,6.11014415 C146.735471,5.45054276 147.257668,4.93763033 147.931107,4.57040898 C148.602503,4.20218975 149.369959,4.01857907 150.230408,4.01857907 C151.010127,4.01857907 151.708093,4.13932305 152.324305,4.380811" id="Fill-24" fill="#FFFFFF" mask="url(#mask-4)"></path>
                <polygon id="Fill-25" fill="#FFFFFF" mask="url(#mask-4)" points="156.024443 12.6693362 157.928264 12.6693362 157.928264 0.693729029 156.024443 0.693729029"></polygon>
            </g>
            <g id="Page-1-Copy-2">
                <path d="M47.7262327,14.3179391 C46.9865968,14.3179391 46.387682,13.7140695 46.387682,12.9698448 C46.387682,12.2249354 46.9865968,11.6217505 47.7262327,11.6217505 C48.4658686,11.6217505 49.0647834,12.2249354 49.0647834,12.9698448 C49.0647834,13.7140695 48.4658686,14.3179391 47.7262327,14.3179391" id="Fill-1" fill="#FFFFFF"></path>
                <path d="M43.988012,14.3179391 C43.2483761,14.3179391 42.6494613,13.7140695 42.6494613,12.9698448 C42.6494613,12.2249354 43.2483761,11.6217505 43.988012,11.6217505 C44.727648,11.6217505 45.3265628,12.2249354 45.3265628,12.9698448 C45.3265628,13.7140695 44.727648,14.3179391 43.988012,14.3179391" id="Fill-3" fill="#FFFFFF"></path>
                <path d="M40.3423139,14.3179391 C39.6026779,14.3179391 39.0037632,13.7140695 39.0037632,12.9698448 C39.0037632,12.2249354 39.6026779,11.6217505 40.3423139,11.6217505 C41.0819498,11.6217505 41.6808646,12.2249354 41.6808646,12.9698448 C41.6808646,13.7140695 41.0819498,14.3179391 40.3423139,14.3179391" id="Fill-5" fill="#FFFFFF"></path>
                <path d="M36.6069484,14.3179391 C35.8673125,14.3179391 35.2683977,13.7140695 35.2683977,12.9698448 C35.2683977,12.2249354 35.8673125,11.6217505 36.6069484,11.6217505 C37.3465844,11.6217505 37.9454991,12.2249354 37.9454991,12.9698448 C37.9454991,13.7140695 37.3465844,14.3179391 36.6069484,14.3179391" id="Fill-7" fill="#FFFFFF"></path>
                <path d="M32.871651,14.3179391 C32.132015,14.3179391 31.5331003,13.7140695 31.5331003,12.9698448 C31.5331003,12.2249354 32.132015,11.6217505 32.871651,11.6217505 C33.6112869,11.6217505 34.2102017,12.2249354 34.2102017,12.9698448 C34.2102017,13.7140695 33.6112869,14.3179391 32.871651,14.3179391" id="Fill-9" fill="#FFFFFF"></path>
                <path d="M29.1362855,14.3179391 C28.3966496,14.3179391 27.7977348,13.7140695 27.7977348,12.9698448 C27.7977348,12.2249354 28.3966496,11.6217505 29.1362855,11.6217505 C29.8759215,11.6217505 30.4748362,12.2249354 30.4748362,12.9698448 C30.4748362,13.7140695 29.8759215,14.3179391 29.1362855,14.3179391" id="Fill-11" fill="#FFFFFF"></path>
                <path d="M13.9940072,32.3506345 C13.0443092,32.3506345 12.2740817,31.5749155 12.2740817,30.6184463 C12.2740817,29.6612925 13.0443092,28.8855735 13.9940072,28.8855735 C14.9437051,28.8855735 15.7139326,29.6612925 15.7139326,30.6184463 C15.7139326,31.5749155 14.9437051,32.3506345 13.9940072,32.3506345" id="Fill-13" fill="#FFFFFF"></path>
                <path d="M11.7554528,35.8141209 C10.8057548,35.8141209 10.0355273,35.0384018 10.0355273,34.0819327 C10.0355273,33.1247789 10.8057548,32.3490598 11.7554528,32.3490598 C12.7051507,32.3490598 13.4753782,33.1247789 13.4753782,34.0819327 C13.4753782,35.0384018 12.7051507,35.8141209 11.7554528,35.8141209" id="Fill-15" fill="#FFFFFF"></path>
                <path d="M16.2533638,28.7952669 C15.3036658,28.7952669 14.5334383,28.0195478 14.5334383,27.0630787 C14.5334383,26.1059249 15.3036658,25.3302058 16.2533638,25.3302058 C17.2030618,25.3302058 17.9732893,26.1059249 17.9732893,27.0630787 C17.9732893,28.0195478 17.2030618,28.7952669 16.2533638,28.7952669" id="Fill-17" fill="#FFFFFF"></path>
                <path d="M18.5573842,25.3091183 C17.6076862,25.3091183 16.8374587,24.5333992 16.8374587,23.5769301 C16.8374587,22.6197763 17.6076862,21.8440572 18.5573842,21.8440572 C19.5070821,21.8440572 20.2773096,22.6197763 20.2773096,23.5769301 C20.2773096,24.5333992 19.5070821,25.3091183 18.5573842,25.3091183" id="Fill-19" fill="#FFFFFF"></path>
                <path d="M20.8537906,21.7373873 C19.9040926,21.7373873 19.1338651,20.9616682 19.1338651,20.0051991 C19.1338651,19.0480453 19.9040926,18.2723262 20.8537906,18.2723262 C21.8034886,18.2723262 22.5737161,19.0480453 22.5737161,20.0051991 C22.5737161,20.9616682 21.8034886,21.7373873 20.8537906,21.7373873" id="Fill-21" fill="#FFFFFF"></path>
                <path d="M23.0988712,18.1687373 C22.200839,18.1687373 21.4734396,17.4354671 21.4734396,16.5317167 C21.4734396,15.6272817 22.200839,14.8940115 23.0988712,14.8940115 C23.9969034,14.8940115 24.7243028,15.6272817 24.7243028,16.5317167 C24.7243028,17.4354671 23.9969034,18.1687373 23.0988712,18.1687373" id="Fill-23" fill="#FFFFFF"></path>
                <path d="M20.7713294,12.8833723 C19.8732971,12.8833723 19.1458978,12.1501021 19.1458978,11.2463518 C19.1458978,10.3419167 19.8732971,9.60864654 20.7713294,9.60864654 C21.6693616,9.60864654 22.3967609,10.3419167 22.3967609,11.2463518 C22.3967609,12.1501021 21.6693616,12.8833723 20.7713294,12.8833723" id="Fill-25" fill="#FFFFFF"></path>
                <path d="M15.1420064,20.0411437 C14.1923085,20.0411437 13.422081,19.2654246 13.422081,18.3089555 C13.422081,17.3518017 14.1923085,16.5760826 15.1420064,16.5760826 C16.0917044,16.5760826 16.8619319,17.3518017 16.8619319,18.3089555 C16.8619319,19.2654246 16.0917044,20.0411437 15.1420064,20.0411437" id="Fill-27" fill="#FFFFFF"></path>
                <path d="M25.6944631,14.8853163 C24.9684234,14.8853163 24.3797058,14.2924013 24.3797058,13.5611851 C24.3797058,12.8292842 24.9684234,12.2363692 25.6944631,12.2363692 C26.4205028,12.2363692 27.0092204,12.8292842 27.0092204,13.5611851 C27.0092204,14.2924013 26.4205028,14.8853163 25.6944631,14.8853163" id="Fill-29" fill="#FFFFFF"></path>
                <path d="M51.4001431,14.3179391 C52.139779,14.3179391 52.7386938,13.7140695 52.7386938,12.9698448 C52.7386938,12.2249354 52.139779,11.6217505 51.4001431,11.6217505 C50.6605072,11.6217505 50.0615924,12.2249354 50.0615924,12.9698448 C50.0615924,13.7140695 50.6605072,14.3179391 51.4001431,14.3179391" id="Fill-31" fill="#FFFFFF"></path>
                <path d="M55.0459093,14.3179391 C55.7855452,14.3179391 56.38446,13.7140695 56.38446,12.9698448 C56.38446,12.2249354 55.7855452,11.6217505 55.0459093,11.6217505 C54.3062733,11.6217505 53.7073586,12.2249354 53.7073586,12.9698448 C53.7073586,13.7140695 54.3062733,14.3179391 55.0459093,14.3179391" id="Fill-33" fill="#FFFFFF"></path>
                <path d="M58.7812067,14.3179391 C59.5208427,14.3179391 60.1197574,13.7140695 60.1197574,12.9698448 C60.1197574,12.2249354 59.5208427,11.6217505 58.7812067,11.6217505 C58.0415708,11.6217505 57.442656,12.2249354 57.442656,12.9698448 C57.442656,13.7140695 58.0415708,14.3179391 58.7812067,14.3179391" id="Fill-35" fill="#FFFFFF"></path>
                <path d="M62.5165722,14.3179391 C63.2562081,14.3179391 63.8551229,13.7140695 63.8551229,12.9698448 C63.8551229,12.2249354 63.2562081,11.6217505 62.5165722,11.6217505 C61.7769362,11.6217505 61.1780215,12.2249354 61.1780215,12.9698448 C61.1780215,13.7140695 61.7769362,14.3179391 62.5165722,14.3179391" id="Fill-37" fill="#FFFFFF"></path>
                <path d="M66.2518696,14.3179391 C66.9915056,14.3179391 67.5904203,13.7140695 67.5904203,12.9698448 C67.5904203,12.2249354 66.9915056,11.6217505 66.2518696,11.6217505 C65.5122337,11.6217505 64.9133189,12.2249354 64.9133189,12.9698448 C64.9133189,13.7140695 65.5122337,14.3179391 66.2518696,14.3179391" id="Fill-39" fill="#FFFFFF"></path>
                <path d="M81.394148,32.3506345 C82.343846,32.3506345 83.1140735,31.5749155 83.1140735,30.6184463 C83.1140735,29.6612925 82.343846,28.8855735 81.394148,28.8855735 C80.44445,28.8855735 79.6742225,29.6612925 79.6742225,30.6184463 C79.6742225,31.5749155 80.44445,32.3506345 81.394148,32.3506345" id="Fill-41" fill="#FFFFFF"></path>
                <path d="M83.6327024,35.8141209 C84.5824004,35.8141209 85.3526279,35.0384018 85.3526279,34.0819327 C85.3526279,33.1247789 84.5824004,32.3490598 83.6327024,32.3490598 C82.6830044,32.3490598 81.9127769,33.1247789 81.9127769,34.0819327 C81.9127769,35.0384018 82.6830044,35.8141209 83.6327024,35.8141209" id="Fill-43" fill="#FFFFFF"></path>
                <path d="M88.6028112,30.5254696 C89.5525092,30.5254696 90.3227367,29.7497505 90.3227367,28.7932814 C90.3227367,27.8361276 89.5525092,27.0604085 88.6028112,27.0604085 C87.6531132,27.0604085 86.8828857,27.8361276 86.8828857,28.7932814 C86.8828857,29.7497505 87.6531132,30.5254696 88.6028112,30.5254696" id="Fill-45" fill="#FFFFFF"></path>
                <path d="M79.1347913,28.7952669 C80.0844893,28.7952669 80.8547168,28.0195478 80.8547168,27.0630787 C80.8547168,26.1059249 80.0844893,25.3302058 79.1347913,25.3302058 C78.1850933,25.3302058 77.4148658,26.1059249 77.4148658,27.0630787 C77.4148658,28.0195478 78.1850933,28.7952669 79.1347913,28.7952669" id="Fill-47" fill="#FFFFFF"></path>
                <path d="M76.830771,25.3091183 C77.780469,25.3091183 78.5506965,24.5333992 78.5506965,23.5769301 C78.5506965,22.6197763 77.780469,21.8440572 76.830771,21.8440572 C75.881073,21.8440572 75.1108455,22.6197763 75.1108455,23.5769301 C75.1108455,24.5333992 75.881073,25.3091183 76.830771,25.3091183" id="Fill-49" fill="#FFFFFF"></path>
                <path d="M74.5343645,21.7373873 C75.4840625,21.7373873 76.25429,20.9616682 76.25429,20.0051991 C76.25429,19.0480453 75.4840625,18.2723262 74.5343645,18.2723262 C73.5846666,18.2723262 72.8144391,19.0480453 72.8144391,20.0051991 C72.8144391,20.9616682 73.5846666,21.7373873 74.5343645,21.7373873" id="Fill-51" fill="#FFFFFF"></path>
                <path d="M72.2893519,18.1687373 C73.1873842,18.1687373 73.9147835,17.4354671 73.9147835,16.5317167 C73.9147835,15.6272817 73.1873842,14.8940115 72.2893519,14.8940115 C71.3913197,14.8940115 70.6639204,15.6272817 70.6639204,16.5317167 C70.6639204,17.4354671 71.3913197,18.1687373 72.2893519,18.1687373" id="Fill-53" fill="#FFFFFF"></path>
                <path d="M80.2461487,20.7026616 C81.1958467,20.7026616 81.9660742,19.9269425 81.9660742,18.9704734 C81.9660742,18.0133196 81.1958467,17.2376005 80.2461487,17.2376005 C79.2964507,17.2376005 78.5262232,18.0133196 78.5262232,18.9704734 C78.5262232,19.9269425 79.2964507,20.7026616 80.2461487,20.7026616" id="Fill-55" fill="#FFFFFF"></path>
                <path d="M69.693692,14.8853163 C70.4197317,14.8853163 71.0084493,14.2924013 71.0084493,13.5611851 C71.0084493,12.8292842 70.4197317,12.2363692 69.693692,12.2363692 C68.9676524,12.2363692 68.3789348,12.8292842 68.3789348,13.5611851 C68.3789348,14.2924013 68.9676524,14.8853163 69.693692,14.8853163" id="Fill-57" fill="#FFFFFF"></path>
                <path d="M18.0039488,16.4505161 C17.0542509,16.4505161 16.2840234,15.674797 16.2840234,14.7183279 C16.2840234,13.7611741 17.0542509,12.985455 18.0039488,12.985455 C18.9536468,12.985455 19.7238743,13.7611741 19.7238743,14.7183279 C19.7238743,15.674797 18.9536468,16.4505161 18.0039488,16.4505161" id="Fill-59" fill="#FFFFFF"></path>
                <path d="M9.52893104,27.0819068 C8.57923306,27.0819068 7.80900556,26.3061878 7.80900556,25.3497186 C7.80900556,24.3925648 8.57923306,23.6168457 9.52893104,23.6168457 C10.478629,23.6168457 11.2488565,24.3925648 11.2488565,25.3497186 C11.2488565,26.3061878 10.478629,27.0819068 9.52893104,27.0819068" id="Fill-61" fill="#FFFFFF"></path>
                <path d="M6.78541196,30.5254696 C5.83571397,30.5254696 5.06548647,29.7497505 5.06548647,28.7932814 C5.06548647,27.8361276 5.83571397,27.0604085 6.78541196,27.0604085 C7.73510994,27.0604085 8.50533744,27.8361276 8.50533744,28.7932814 C8.50533744,29.7497505 7.73510994,30.5254696 6.78541196,30.5254696" id="Fill-63" fill="#FFFFFF"></path>
                <path d="M12.3428107,23.553104 C11.3931127,23.553104 10.6228852,22.7773849 10.6228852,21.8209157 C10.6228852,20.8637619 11.3931127,20.0880429 12.3428107,20.0880429 C13.2925087,20.0880429 14.0627362,20.8637619 14.0627362,21.8209157 C14.0627362,22.7773849 13.2925087,23.553104 12.3428107,23.553104" id="Fill-65" fill="#FFFFFF"></path>
                <path d="M23.8893571,9.59734966 C23.1633174,9.59734966 22.5745998,9.00443465 22.5745998,8.27321844 C22.5745998,7.54131757 23.1633174,6.94840256 23.8893571,6.94840256 C24.6153968,6.94840256 25.2041144,7.54131757 25.2041144,8.27321844 C25.2041144,9.00443465 24.6153968,9.59734966 23.8893571,9.59734966" id="Fill-67" fill="#FFFFFF"></path>
                <path d="M27.6334921,9.05064916 C26.8938562,9.05064916 26.2949414,8.44677959 26.2949414,7.70255486 C26.2949414,6.95764546 26.8938562,6.35446055 27.6334921,6.35446055 C28.3731281,6.35446055 28.9720428,6.95764546 28.9720428,7.70255486 C28.9720428,8.44677959 28.3731281,9.05064916 27.6334921,9.05064916" id="Fill-69" fill="#FFFFFF"></path>
                <path d="M31.6711702,9.05064916 C30.9315342,9.05064916 30.3326195,8.44677959 30.3326195,7.70255486 C30.3326195,6.95764546 30.9315342,6.35446055 31.6711702,6.35446055 C32.4108061,6.35446055 33.0097209,6.95764546 33.0097209,7.70255486 C33.0097209,8.44677959 32.4108061,9.05064916 31.6711702,9.05064916" id="Fill-71" fill="#FFFFFF"></path>
                <path d="M35.7087802,9.05064916 C34.9691443,9.05064916 34.3702295,8.44677959 34.3702295,7.70255486 C34.3702295,6.95764546 34.9691443,6.35446055 35.7087802,6.35446055 C36.4484162,6.35446055 37.0473309,6.95764546 37.0473309,7.70255486 C37.0473309,8.44677959 36.4484162,9.05064916 35.7087802,9.05064916" id="Fill-73" fill="#FFFFFF"></path>
                <path d="M39.7463903,9.05064916 C39.0067543,9.05064916 38.4078396,8.44677959 38.4078396,7.70255486 C38.4078396,6.95764546 39.0067543,6.35446055 39.7463903,6.35446055 C40.4860262,6.35446055 41.084941,6.95764546 41.084941,7.70255486 C41.084941,8.44677959 40.4860262,9.05064916 39.7463903,9.05064916" id="Fill-75" fill="#FFFFFF"></path>
                <path d="M43.687195,9.05064916 C42.9475591,9.05064916 42.3486443,8.44677959 42.3486443,7.70255486 C42.3486443,6.95764546 42.9475591,6.35446055 43.687195,6.35446055 C44.426831,6.35446055 45.0257457,6.95764546 45.0257457,7.70255486 C45.0257457,8.44677959 44.426831,9.05064916 43.687195,9.05064916" id="Fill-77" fill="#FFFFFF"></path>
                <path d="M47.7218819,9.05064916 C46.982246,9.05064916 46.3833312,8.44677959 46.3833312,7.70255486 C46.3833312,6.95764546 46.982246,6.35446055 47.7218819,6.35446055 C48.4615178,6.35446055 49.0604326,6.95764546 49.0604326,7.70255486 C49.0604326,8.44677959 48.4615178,9.05064916 47.7218819,9.05064916" id="Fill-79" fill="#FFFFFF"></path>
                <path d="M74.6168938,12.8833723 C75.514926,12.8833723 76.2423253,12.1501021 76.2423253,11.2463518 C76.2423253,10.3419167 75.514926,9.60864654 74.6168938,9.60864654 C73.7188615,9.60864654 72.9914622,10.3419167 72.9914622,11.2463518 C72.9914622,12.1501021 73.7188615,12.8833723 74.6168938,12.8833723" id="Fill-81" fill="#FFFFFF"></path>
                <path d="M77.3842063,16.4505161 C78.3339043,16.4505161 79.1041318,15.674797 79.1041318,14.7183279 C79.1041318,13.7611741 78.3339043,12.985455 77.3842063,12.985455 C76.4345083,12.985455 75.6642808,13.7611741 75.6642808,14.7183279 C75.6642808,15.674797 76.4345083,16.4505161 77.3842063,16.4505161" id="Fill-83" fill="#FFFFFF"></path>
                <path d="M83.0454124,23.553104 C83.9951104,23.553104 84.7653379,22.7773849 84.7653379,21.8209157 C84.7653379,20.8637619 83.9951104,20.0880429 83.0454124,20.0880429 C82.0957144,20.0880429 81.3254869,20.8637619 81.3254869,21.8209157 C81.3254869,22.7773849 82.0957144,23.553104 83.0454124,23.553104" id="Fill-85" fill="#FFFFFF"></path>
                <path d="M85.8592921,27.0819068 C86.8089901,27.0819068 87.5792176,26.3061878 87.5792176,25.3497186 C87.5792176,24.3925648 86.8089901,23.6168457 85.8592921,23.6168457 C84.9095941,23.6168457 84.1393666,24.3925648 84.1393666,25.3497186 C84.1393666,26.3061878 84.9095941,27.0819068 85.8592921,27.0819068" id="Fill-87" fill="#FFFFFF"></path>
                <path d="M71.498798,9.59734966 C72.2248377,9.59734966 72.8135553,9.00443465 72.8135553,8.27321844 C72.8135553,7.54131757 72.2248377,6.94840256 71.498798,6.94840256 C70.7727583,6.94840256 70.1840408,7.54131757 70.1840408,8.27321844 C70.1840408,9.00443465 70.7727583,9.59734966 71.498798,9.59734966" id="Fill-89" fill="#FFFFFF"></path>
                <path d="M67.754663,9.05064916 C68.494299,9.05064916 69.0932137,8.44677959 69.0932137,7.70255486 C69.0932137,6.95764546 68.494299,6.35446055 67.754663,6.35446055 C67.0150271,6.35446055 66.4161123,6.95764546 66.4161123,7.70255486 C66.4161123,8.44677959 67.0150271,9.05064916 67.754663,9.05064916" id="Fill-91" fill="#FFFFFF"></path>
                <path d="M63.717053,9.05064916 C64.4566889,9.05064916 65.0556037,8.44677959 65.0556037,7.70255486 C65.0556037,6.95764546 64.4566889,6.35446055 63.717053,6.35446055 C62.977417,6.35446055 62.3785023,6.95764546 62.3785023,7.70255486 C62.3785023,8.44677959 62.977417,9.05064916 63.717053,9.05064916" id="Fill-93" fill="#FFFFFF"></path>
                <path d="M59.6794429,9.05064916 C60.4190788,9.05064916 61.0179936,8.44677959 61.0179936,7.70255486 C61.0179936,6.95764546 60.4190788,6.35446055 59.6794429,6.35446055 C58.939807,6.35446055 58.3408922,6.95764546 58.3408922,7.70255486 C58.3408922,8.44677959 58.939807,9.05064916 59.6794429,9.05064916" id="Fill-95" fill="#FFFFFF"></path>
                <path d="M55.6417649,9.05064916 C56.3814008,9.05064916 56.9803156,8.44677959 56.9803156,7.70255486 C56.9803156,6.95764546 56.3814008,6.35446055 55.6417649,6.35446055 C54.9021289,6.35446055 54.3032142,6.95764546 54.3032142,7.70255486 C54.3032142,8.44677959 54.9021289,9.05064916 55.6417649,9.05064916" id="Fill-97" fill="#FFFFFF"></path>
                <path d="M51.7010281,9.05064916 C52.440664,9.05064916 53.0395788,8.44677959 53.0395788,7.70255486 C53.0395788,6.95764546 52.440664,6.35446055 51.7010281,6.35446055 C50.9613921,6.35446055 50.3624774,6.95764546 50.3624774,7.70255486 C50.3624774,8.44677959 50.9613921,9.05064916 51.7010281,9.05064916" id="Fill-99" fill="#FFFFFF"></path>
                <path d="M1.72012943,25.3440359 C0.770431444,25.3440359 0.000203943733,24.5683169 0.000203943733,23.6118477 C0.000203943733,22.6546939 0.770431444,21.8789749 1.72012943,21.8789749 C2.66982742,21.8789749 3.44005492,22.6546939 3.44005492,23.6118477 C3.44005492,24.5683169 2.66982742,25.3440359 1.72012943,25.3440359" id="Fill-101" fill="#FFFFFF"></path>
                <path d="M18.445691,7.601773 C17.5476587,7.601773 16.8202594,6.86850281 16.8202594,5.96475244 C16.8202594,5.06031741 17.5476587,4.32704722 18.445691,4.32704722 C19.3437232,4.32704722 20.0711225,5.06031741 20.0711225,5.96475244 C20.0711225,6.86850281 19.3437232,7.601773 18.445691,7.601773" id="Fill-103" fill="#FFFFFF"></path>
                <path d="M5.06521455,21.8146169 C4.11551656,21.8146169 3.34528906,21.0388978 3.34528906,20.0824287 C3.34528906,19.1252749 4.11551656,18.3495558 5.06521455,18.3495558 C6.01491253,18.3495558 6.78514003,19.1252749 6.78514003,20.0824287 C6.78514003,21.0388978 6.01491253,21.8146169 5.06521455,21.8146169" id="Fill-105" fill="#FFFFFF"></path>
                <path d="M8.41036764,18.2851978 C7.46066966,18.2851978 6.69044216,17.5094788 6.69044216,16.5530096 C6.69044216,15.5958558 7.46066966,14.8201367 8.41036764,14.8201367 C9.36006563,14.8201367 10.1302931,15.5958558 10.1302931,16.5530096 C10.1302931,17.5094788 9.36006563,18.2851978 8.41036764,18.2851978" id="Fill-107" fill="#FFFFFF"></path>
                <path d="M11.6558602,14.6600634 C10.7061623,14.6600634 9.93593475,13.8843443 9.93593475,12.9278752 C9.93593475,11.9707214 10.7061623,11.1950023 11.6558602,11.1950023 C12.6055582,11.1950023 13.3757857,11.9707214 13.3757857,12.9278752 C13.3757857,13.8843443 12.6055582,14.6600634 11.6558602,14.6600634" id="Fill-109" fill="#FFFFFF"></path>
                <path d="M15.1420064,11.0762139 C14.1923085,11.0762139 13.422081,10.3004948 13.422081,9.3440257 C13.422081,8.3868719 14.1923085,7.61115283 15.1420064,7.61115283 C16.0917044,7.61115283 16.8619319,8.3868719 16.8619319,9.3440257 C16.8619319,10.3004948 16.0917044,11.0762139 15.1420064,11.0762139" id="Fill-111" fill="#FFFFFF"></path>
                <path d="M22.0866985,4.3482032 C21.3606588,4.3482032 20.7719412,3.75528818 20.7719412,3.02407198 C20.7719412,2.29217111 21.3606588,1.69925609 22.0866985,1.69925609 C22.8127381,1.69925609 23.4014557,2.29217111 23.4014557,3.02407198 C23.4014557,3.75528818 22.8127381,4.3482032 22.0866985,4.3482032" id="Fill-113" fill="#FFFFFF"></path>
                <path d="M47.7218819,3.78342768 C46.982246,3.78342768 46.3833312,3.17955812 46.3833312,2.43533338 C46.3833312,1.69042399 46.982246,1.08723908 47.7218819,1.08723908 C48.4615178,1.08723908 49.0604326,1.69042399 49.0604326,2.43533338 C49.0604326,3.17955812 48.4615178,3.78342768 47.7218819,3.78342768" id="Fill-115" fill="#FFFFFF"></path>
                <path d="M43.3863101,3.78342768 C42.6466741,3.78342768 42.0477593,3.17955812 42.0477593,2.43533338 C42.0477593,1.69042399 42.6466741,1.08723908 43.3863101,1.08723908 C44.125946,1.08723908 44.7248608,1.69042399 44.7248608,2.43533338 C44.7248608,3.17955812 44.125946,3.78342768 43.3863101,3.78342768" id="Fill-117" fill="#FFFFFF"></path>
                <path d="M39.1504667,3.78342768 C38.4108307,3.78342768 37.811916,3.17955812 37.811916,2.43533338 C37.811916,1.69042399 38.4108307,1.08723908 39.1504667,1.08723908 C39.8901026,1.08723908 40.4890174,1.69042399 40.4890174,2.43533338 C40.4890174,3.17955812 39.8901026,3.78342768 39.1504667,3.78342768" id="Fill-119" fill="#FFFFFF"></path>
                <path d="M34.810544,3.78342768 C34.0709081,3.78342768 33.4719933,3.17955812 33.4719933,2.43533338 C33.4719933,1.69042399 34.0709081,1.08723908 34.810544,1.08723908 C35.55018,1.08723908 36.1490947,1.69042399 36.1490947,2.43533338 C36.1490947,3.17955812 35.55018,3.78342768 34.810544,3.78342768" id="Fill-121" fill="#FFFFFF"></path>
                <path d="M30.4749722,3.78342768 C29.7353363,3.78342768 29.1364215,3.17955812 29.1364215,2.43533338 C29.1364215,1.69042399 29.7353363,1.08723908 30.4749722,1.08723908 C31.2146081,1.08723908 31.8135229,1.69042399 31.8135229,2.43533338 C31.8135229,3.17955812 31.2146081,3.78342768 30.4749722,3.78342768" id="Fill-123" fill="#FFFFFF"></path>
                <path d="M26.1306987,3.78342768 C25.3910628,3.78342768 24.792148,3.17955812 24.792148,2.43533338 C24.792148,1.69042399 25.3910628,1.08723908 26.1306987,1.08723908 C26.8703347,1.08723908 27.4692494,1.69042399 27.4692494,2.43533338 C27.4692494,3.17955812 26.8703347,3.78342768 26.1306987,3.78342768" id="Fill-125" fill="#FFFFFF"></path>
                <path d="M93.6680257,25.3440359 C94.6177237,25.3440359 95.3879512,24.5683169 95.3879512,23.6118477 C95.3879512,22.6546939 94.6177237,21.8789749 93.6680257,21.8789749 C92.7183277,21.8789749 91.9481002,22.6546939 91.9481002,23.6118477 C91.9481002,24.5683169 92.7183277,25.3440359 93.6680257,25.3440359" id="Fill-127" fill="#FFFFFF"></path>
                <path d="M76.9425322,7.601773 C77.8405644,7.601773 78.5679637,6.86850281 78.5679637,5.96475244 C78.5679637,5.06031741 77.8405644,4.32704722 76.9425322,4.32704722 C76.0444999,4.32704722 75.3171006,5.06031741 75.3171006,5.96475244 C75.3171006,6.86850281 76.0444999,7.601773 76.9425322,7.601773" id="Fill-129" fill="#FFFFFF"></path>
                <path d="M90.3229406,21.8146169 C91.2726386,21.8146169 92.0428661,21.0388978 92.0428661,20.0824287 C92.0428661,19.1252749 91.2726386,18.3495558 90.3229406,18.3495558 C89.3732426,18.3495558 88.6030151,19.1252749 88.6030151,20.0824287 C88.6030151,21.0388978 89.3732426,21.8146169 90.3229406,21.8146169" id="Fill-131" fill="#FFFFFF"></path>
                <path d="M86.9778555,18.2851978 C87.9275535,18.2851978 88.697781,17.5094788 88.697781,16.5530096 C88.697781,15.5958558 87.9275535,14.8201367 86.9778555,14.8201367 C86.0281575,14.8201367 85.25793,15.5958558 85.25793,16.5530096 C85.25793,17.5094788 86.0281575,18.2851978 86.9778555,18.2851978" id="Fill-133" fill="#FFFFFF"></path>
                <path d="M83.7322949,14.6600634 C84.6819929,14.6600634 85.4522204,13.8843443 85.4522204,12.9278752 C85.4522204,11.9707214 84.6819929,11.1950023 83.7322949,11.1950023 C82.7825969,11.1950023 82.0123694,11.9707214 82.0123694,12.9278752 C82.0123694,13.8843443 82.7825969,14.6600634 83.7322949,14.6600634" id="Fill-135" fill="#FFFFFF"></path>
                <path d="M80.2461487,11.0762139 C81.1958467,11.0762139 81.9660742,10.3004948 81.9660742,9.3440257 C81.9660742,8.3868719 81.1958467,7.61115283 80.2461487,7.61115283 C79.2964507,7.61115283 78.5262232,8.3868719 78.5262232,9.3440257 C78.5262232,10.3004948 79.2964507,11.0762139 80.2461487,11.0762139" id="Fill-137" fill="#FFFFFF"></path>
                <path d="M73.3014567,4.3482032 C74.0274964,4.3482032 74.616214,3.75528818 74.616214,3.02407198 C74.616214,2.29217111 74.0274964,1.69925609 73.3014567,1.69925609 C72.575417,1.69925609 71.9866994,2.29217111 71.9866994,3.02407198 C71.9866994,3.75528818 72.575417,4.3482032 73.3014567,4.3482032" id="Fill-139" fill="#FFFFFF"></path>
                <path d="M52.0018451,3.78342768 C52.741481,3.78342768 53.3403958,3.17955812 53.3403958,2.43533338 C53.3403958,1.69042399 52.741481,1.08723908 52.0018451,1.08723908 C51.2622092,1.08723908 50.6632944,1.69042399 50.6632944,2.43533338 C50.6632944,3.17955812 51.2622092,3.78342768 52.0018451,3.78342768" id="Fill-141" fill="#FFFFFF"></path>
                <path d="M56.2376885,3.78342768 C56.9773244,3.78342768 57.5762392,3.17955812 57.5762392,2.43533338 C57.5762392,1.69042399 56.9773244,1.08723908 56.2376885,1.08723908 C55.4980525,1.08723908 54.8991378,1.69042399 54.8991378,2.43533338 C54.8991378,3.17955812 55.4980525,3.78342768 56.2376885,3.78342768" id="Fill-143" fill="#FFFFFF"></path>
                <path d="M60.5776111,3.78342768 C61.317247,3.78342768 61.9161618,3.17955812 61.9161618,2.43533338 C61.9161618,1.69042399 61.317247,1.08723908 60.5776111,1.08723908 C59.8379752,1.08723908 59.2390604,1.69042399 59.2390604,2.43533338 C59.2390604,3.17955812 59.8379752,3.78342768 60.5776111,3.78342768" id="Fill-145" fill="#FFFFFF"></path>
                <path d="M64.9132509,3.78342768 C65.6528869,3.78342768 66.2518016,3.17955812 66.2518016,2.43533338 C66.2518016,1.69042399 65.6528869,1.08723908 64.9132509,1.08723908 C64.173615,1.08723908 63.5747002,1.69042399 63.5747002,2.43533338 C63.5747002,3.17955812 64.173615,3.78342768 64.9132509,3.78342768" id="Fill-147" fill="#FFFFFF"></path>
                <path d="M69.2574564,3.78342768 C69.9970923,3.78342768 70.5960071,3.17955812 70.5960071,2.43533338 C70.5960071,1.69042399 69.9970923,1.08723908 69.2574564,1.08723908 C68.5178205,1.08723908 67.9189057,1.69042399 67.9189057,2.43533338 C67.9189057,3.17955812 68.5178205,3.78342768 69.2574564,3.78342768" id="Fill-149" fill="#FFFFFF"></path>
                <path d="M43.745387,26.4648918 C43.745387,27.6561991 45.2776842,28.6742876 47.1879572,28.826282 L47.1879572,24.1035016 C45.2776842,24.255496 43.745387,25.2742691 43.745387,26.4648918" id="Fill-151" fill="#FFFFFF"></path>
                <polygon id="Fill-153" fill="#FFFFFF" points="69.1401888 30.7961839 75.0613552 30.7961839 71.0817331 24.2741187 69.7751336 22.1338735 65.2904109 22.1338735"></polygon>
                <path d="M78.3487922,36.1842478 L77.4099712,34.6458182 L75.6662523,31.7887346 L68.5017089,31.7887346 L63.7702143,21.1415967 L69.1699645,21.1415967 L67.4479996,18.3187461 L67.4479996,18.3187461 C67.2318193,17.9647772 66.7165214,17.6744817 66.3038753,17.6744817 L48.1732774,17.6744817 L48.1732774,23.1058845 C50.6926623,23.2702027 52.6015756,24.6860783 52.6015756,26.4648233 C52.6015756,28.2435684 50.6926623,29.659444 48.1732774,29.8244469 L48.1732774,36.8285122 L77.9912108,36.8285122 C78.403857,36.8285122 78.5649725,36.5389013 78.3487922,36.1842478" id="Fill-155" fill="#FFFFFF"></path>
                <polygon id="Fill-157" fill="#FFFFFF" points="30.0708237 22.1335312 25.6724372 22.1335312 20.3868954 30.7958416 26.2210458 30.7958416"></polygon>
                <g id="Group-161" transform="translate(16.995311, 17.658050)">
                    <mask id="mask-6" fill="white">
                        <use xlink:href="#path-5"></use>
                    </mask>
                    <g id="Clip-160"></g>
                    <path d="M11.0050078,0.660901691 L9.28304288,3.48306762 L14.5957771,3.48306762 L9.86428252,14.1302055 L2.78607534,14.1302055 L0.104215248,18.5264033 C-0.11196511,18.8803722 0.0491504398,19.1706678 0.461796594,19.1706678 L30.1927141,19.1706678 L30.1927141,12.1659178 C27.6733291,12.0015995 25.7650956,10.5850393 25.7650956,8.80697889 C25.7650956,7.02823384 27.6733291,5.61235826 30.1927141,5.44804001 L30.1927141,0.0166372227 L12.1491321,0.0166372227 C11.736486,0.0166372227 11.2211882,0.306248137 11.0050078,0.660901691" id="Fill-159" fill="#FFFFFF" mask="url(#mask-6)"></path>
                </g>
                <path d="M51.6159835,26.4648918 C51.6159835,25.2742691 50.0836863,24.255496 48.1734133,24.1035016 L48.1734133,28.826282 C50.0836863,28.6742876 51.6159835,27.6561991 51.6159835,26.4648918" id="Fill-162" fill="#FFFFFF"></path>
                <g id="Group-326" style="mix-blend-mode: multiply;" transform="translate(0.679812, 0.541566)">
                    <path d="M47.7311953,13.3739992 C46.9915594,13.3739992 46.3926446,12.7701297 46.3926446,12.0259049 C46.3926446,11.2809955 46.9915594,10.6778106 47.7311953,10.6778106 C48.4708313,10.6778106 49.069746,11.2809955 49.069746,12.0259049 C49.069746,12.7701297 48.4708313,13.3739992 47.7311953,13.3739992" id="Fill-164" fill="#FFFFFF"></path>
                    <path d="M43.9929747,13.3739992 C43.2533387,13.3739992 42.654424,12.7701297 42.654424,12.0259049 C42.654424,11.2809955 43.2533387,10.6778106 43.9929747,10.6778106 C44.7326106,10.6778106 45.3315254,11.2809955 45.3315254,12.0259049 C45.3315254,12.7701297 44.7326106,13.3739992 43.9929747,13.3739992" id="Fill-166" fill="#E75E34"></path>
                    <path d="M40.3472765,13.3739992 C39.6076406,13.3739992 39.0087258,12.7701297 39.0087258,12.0259049 C39.0087258,11.2809955 39.6076406,10.6778106 40.3472765,10.6778106 C41.0869124,10.6778106 41.6858272,11.2809955 41.6858272,12.0259049 C41.6858272,12.7701297 41.0869124,13.3739992 40.3472765,13.3739992" id="Fill-168" fill="#0FB9BF"></path>
                    <path d="M36.6119111,13.3739992 C35.8722751,13.3739992 35.2733604,12.7701297 35.2733604,12.0259049 C35.2733604,11.2809955 35.8722751,10.6778106 36.6119111,10.6778106 C37.351547,10.6778106 37.9504618,11.2809955 37.9504618,12.0259049 C37.9504618,12.7701297 37.351547,13.3739992 36.6119111,13.3739992" id="Fill-170" fill="#FFFFFF"></path>
                    <path d="M32.8766136,13.3739992 C32.1369777,13.3739992 31.5380629,12.7701297 31.5380629,12.0259049 C31.5380629,11.2809955 32.1369777,10.6778106 32.8766136,10.6778106 C33.6162495,10.6778106 34.2151643,11.2809955 34.2151643,12.0259049 C34.2151643,12.7701297 33.6162495,13.3739992 32.8766136,13.3739992" id="Fill-172" fill="#E75E34"></path>
                    <path d="M29.1412482,13.3739992 C28.4016122,13.3739992 27.8026975,12.7701297 27.8026975,12.0259049 C27.8026975,11.2809955 28.4016122,10.6778106 29.1412482,10.6778106 C29.8808841,10.6778106 30.4797989,11.2809955 30.4797989,12.0259049 C30.4797989,12.7701297 29.8808841,13.3739992 29.1412482,13.3739992" id="Fill-174" fill="#0FB9BF"></path>
                    <path d="M13.9989698,31.4067631 C13.0492718,31.4067631 12.2790443,30.6310441 12.2790443,29.6745749 C12.2790443,28.7174211 13.0492718,27.9417021 13.9989698,27.9417021 C14.9486678,27.9417021 15.7188953,28.7174211 15.7188953,29.6745749 C15.7188953,30.6310441 14.9486678,31.4067631 13.9989698,31.4067631" id="Fill-176" fill="#0FB9BF"></path>
                    <path d="M11.7604154,34.870181 C10.8107174,34.870181 10.0404899,34.094462 10.0404899,33.1379928 C10.0404899,32.180839 10.8107174,31.4051199 11.7604154,31.4051199 C12.7101134,31.4051199 13.4803409,32.180839 13.4803409,33.1379928 C13.4803409,34.094462 12.7101134,34.870181 11.7604154,34.870181" id="Fill-178" fill="#FFFFFF"></path>
                    <path d="M16.2583265,27.8513955 C15.3086285,27.8513955 14.538401,27.0756764 14.538401,26.1192073 C14.538401,25.1620535 15.3086285,24.3863344 16.2583265,24.3863344 C17.2080244,24.3863344 17.9782519,25.1620535 17.9782519,26.1192073 C17.9782519,27.0756764 17.2080244,27.8513955 16.2583265,27.8513955" id="Fill-180" fill="#E75E34"></path>
                    <path d="M18.5623468,24.3651784 C17.6126488,24.3651784 16.8424213,23.5894594 16.8424213,22.6329902 C16.8424213,21.6758364 17.6126488,20.9001174 18.5623468,20.9001174 C19.5120448,20.9001174 20.2822723,21.6758364 20.2822723,22.6329902 C20.2822723,23.5894594 19.5120448,24.3651784 18.5623468,24.3651784" id="Fill-182" fill="#FFFFFF"></path>
                    <path d="M20.8587532,20.7934474 C19.9090552,20.7934474 19.1388277,20.0177284 19.1388277,19.0612592 C19.1388277,18.1041054 19.9090552,17.3283864 20.8587532,17.3283864 C21.8084512,17.3283864 22.5786787,18.1041054 22.5786787,19.0612592 C22.5786787,20.0177284 21.8084512,20.7934474 20.8587532,20.7934474" id="Fill-184" fill="#0FB9BF"></path>
                    <path d="M23.1037658,17.2247974 C22.2057336,17.2247974 21.4783343,16.4915272 21.4783343,15.5877768 C21.4783343,14.6833418 22.2057336,13.9500716 23.1037658,13.9500716 C24.0017981,13.9500716 24.7291974,14.6833418 24.7291974,15.5877768 C24.7291974,16.4915272 24.0017981,17.2247974 23.1037658,17.2247974" id="Fill-186" fill="#E75E34"></path>
                    <path d="M20.776292,11.9394324 C19.8782597,11.9394324 19.1508604,11.2061623 19.1508604,10.3024119 C19.1508604,9.39797686 19.8782597,8.66470667 20.776292,8.66470667 C21.6743242,8.66470667 22.4017235,9.39797686 22.4017235,10.3024119 C22.4017235,11.2061623 21.6743242,11.9394324 20.776292,11.9394324" id="Fill-188" fill="#0FB9BF"></path>
                    <path d="M15.1469691,19.0972038 C14.1972711,19.0972038 13.4270436,18.3214848 13.4270436,17.3650156 C13.4270436,16.4078618 14.1972711,15.6321428 15.1469691,15.6321428 C16.0966671,15.6321428 16.8668946,16.4078618 16.8668946,17.3650156 C16.8668946,18.3214848 16.0966671,19.0972038 15.1469691,19.0972038" id="Fill-190" fill="#E75E34"></path>
                    <path d="M25.6994257,13.9413764 C24.973386,13.9413764 24.3846685,13.3484614 24.3846685,12.6172452 C24.3846685,11.8853444 24.973386,11.2924293 25.6994257,11.2924293 C26.4254654,11.2924293 27.014183,11.8853444 27.014183,12.6172452 C27.014183,13.3484614 26.4254654,13.9413764 25.6994257,13.9413764" id="Fill-192" fill="#FFFFFF"></path>
                    <path d="M51.4051057,13.3739992 C52.1447417,13.3739992 52.7436564,12.7701297 52.7436564,12.0259049 C52.7436564,11.2809955 52.1447417,10.6778106 51.4051057,10.6778106 C50.6654698,10.6778106 50.066555,11.2809955 50.066555,12.0259049 C50.066555,12.7701297 50.6654698,13.3739992 51.4051057,13.3739992" id="Fill-194" fill="#E75E34"></path>
                    <path d="M55.0508719,13.3739992 C55.7905078,13.3739992 56.3894226,12.7701297 56.3894226,12.0259049 C56.3894226,11.2809955 55.7905078,10.6778106 55.0508719,10.6778106 C54.311236,10.6778106 53.7123212,11.2809955 53.7123212,12.0259049 C53.7123212,12.7701297 54.311236,13.3739992 55.0508719,13.3739992" id="Fill-196" fill="#0FB9BF"></path>
                    <path d="M58.7861694,13.3739992 C59.5258053,13.3739992 60.1247201,12.7701297 60.1247201,12.0259049 C60.1247201,11.2809955 59.5258053,10.6778106 58.7861694,10.6778106 C58.0465334,10.6778106 57.4476186,11.2809955 57.4476186,12.0259049 C57.4476186,12.7701297 58.0465334,13.3739992 58.7861694,13.3739992" id="Fill-198" fill="#FFFFFF"></path>
                    <path d="M62.5215348,13.3739992 C63.2611707,13.3739992 63.8600855,12.7701297 63.8600855,12.0259049 C63.8600855,11.2809955 63.2611707,10.6778106 62.5215348,10.6778106 C61.7818989,10.6778106 61.1829841,11.2809955 61.1829841,12.0259049 C61.1829841,12.7701297 61.7818989,13.3739992 62.5215348,13.3739992" id="Fill-200" fill="#E75E34"></path>
                    <path d="M66.2568323,13.3739992 C66.9964682,13.3739992 67.595383,12.7701297 67.595383,12.0259049 C67.595383,11.2809955 66.9964682,10.6778106 66.2568323,10.6778106 C65.5171963,10.6778106 64.9182815,11.2809955 64.9182815,12.0259049 C64.9182815,12.7701297 65.5171963,13.3739992 66.2568323,13.3739992" id="Fill-202" fill="#0FB9BF"></path>
                    <path d="M81.3991106,31.4067631 C82.3488086,31.4067631 83.1190361,30.6310441 83.1190361,29.6745749 C83.1190361,28.7174211 82.3488086,27.9417021 81.3991106,27.9417021 C80.4494126,27.9417021 79.6791851,28.7174211 79.6791851,29.6745749 C79.6791851,30.6310441 80.4494126,31.4067631 81.3991106,31.4067631" id="Fill-204" fill="#0FB9BF"></path>
                    <path d="M83.637665,34.870181 C84.587363,34.870181 85.3575905,34.094462 85.3575905,33.1379928 C85.3575905,32.180839 84.587363,31.4051199 83.637665,31.4051199 C82.687967,31.4051199 81.9177395,32.180839 81.9177395,33.1379928 C81.9177395,34.094462 82.687967,34.870181 83.637665,34.870181" id="Fill-206" fill="#FFFFFF"></path>
                    <path d="M88.6077738,29.5815297 C89.5574718,29.5815297 90.3276993,28.8058106 90.3276993,27.8493415 C90.3276993,26.8921877 89.5574718,26.1164686 88.6077738,26.1164686 C87.6580758,26.1164686 86.8878483,26.8921877 86.8878483,27.8493415 C86.8878483,28.8058106 87.6580758,29.5815297 88.6077738,29.5815297" id="Fill-208" fill="#E75E34"></path>
                    <path d="M79.139754,27.8513955 C80.0894519,27.8513955 80.8596794,27.0756764 80.8596794,26.1192073 C80.8596794,25.1620535 80.0894519,24.3863344 79.139754,24.3863344 C78.190056,24.3863344 77.4198285,25.1620535 77.4198285,26.1192073 C77.4198285,27.0756764 78.190056,27.8513955 79.139754,27.8513955" id="Fill-210" fill="#E75E34"></path>
                    <path d="M76.8357336,24.3651784 C77.7854316,24.3651784 78.5556591,23.5894594 78.5556591,22.6329902 C78.5556591,21.6758364 77.7854316,20.9001174 76.8357336,20.9001174 C75.8860356,20.9001174 75.1158081,21.6758364 75.1158081,22.6329902 C75.1158081,23.5894594 75.8860356,24.3651784 76.8357336,24.3651784" id="Fill-212" fill="#FFFFFF"></path>
                    <path d="M74.5393272,20.7934474 C75.4890252,20.7934474 76.2592527,20.0177284 76.2592527,19.0612592 C76.2592527,18.1041054 75.4890252,17.3283864 74.5393272,17.3283864 C73.5896292,17.3283864 72.8194017,18.1041054 72.8194017,19.0612592 C72.8194017,20.0177284 73.5896292,20.7934474 74.5393272,20.7934474" id="Fill-214" fill="#0FB9BF"></path>
                    <path d="M72.2943146,17.2247974 C73.1923468,17.2247974 73.9197461,16.4915272 73.9197461,15.5877768 C73.9197461,14.6833418 73.1923468,13.9500716 72.2943146,13.9500716 C71.3962823,13.9500716 70.668883,14.6833418 70.668883,15.5877768 C70.668883,16.4915272 71.3962823,17.2247974 72.2943146,17.2247974" id="Fill-216" fill="#E75E34"></path>
                    <path d="M80.2511113,19.7587217 C81.2008093,19.7587217 81.9710368,18.9830027 81.9710368,18.0265335 C81.9710368,17.0693797 81.2008093,16.2936606 80.2511113,16.2936606 C79.3014134,16.2936606 78.5311859,17.0693797 78.5311859,18.0265335 C78.5311859,18.9830027 79.3014134,19.7587217 80.2511113,19.7587217" id="Fill-218" fill="#E75E34"></path>
                    <path d="M69.6986547,13.9413764 C70.4246944,13.9413764 71.0134119,13.3484614 71.0134119,12.6172452 C71.0134119,11.8853444 70.4246944,11.2924293 69.6986547,11.2924293 C68.972615,11.2924293 68.3838974,11.8853444 68.3838974,12.6172452 C68.3838974,13.3484614 68.972615,13.9413764 69.6986547,13.9413764" id="Fill-220" fill="#FFFFFF"></path>
                    <path d="M18.0089115,15.5066447 C17.0592135,15.5066447 16.288986,14.7309256 16.288986,13.7744565 C16.288986,12.8173027 17.0592135,12.0415836 18.0089115,12.0415836 C18.9586095,12.0415836 19.728837,12.8173027 19.728837,13.7744565 C19.728837,14.7309256 18.9586095,15.5066447 18.0089115,15.5066447" id="Fill-222" fill="#FFFFFF"></path>
                    <path d="M9.53382569,26.1379669 C8.58412771,26.1379669 7.81390021,25.3622479 7.81390021,24.4057787 C7.81390021,23.4486249 8.58412771,22.6729059 9.53382569,22.6729059 C10.4835237,22.6729059 11.2537512,23.4486249 11.2537512,24.4057787 C11.2537512,25.3622479 10.4835237,26.1379669 9.53382569,26.1379669" id="Fill-224" fill="#FFFFFF"></path>
                    <path d="M6.79030661,29.5815297 C5.84060862,29.5815297 5.07038112,28.8058106 5.07038112,27.8493415 C5.07038112,26.8921877 5.84060862,26.1164686 6.79030661,26.1164686 C7.74000459,26.1164686 8.51023209,26.8921877 8.51023209,27.8493415 C8.51023209,28.8058106 7.74000459,29.5815297 6.79030661,29.5815297" id="Fill-226" fill="#E75E34"></path>
                    <path d="M12.3477733,22.6091641 C11.3980754,22.6091641 10.6278479,21.833445 10.6278479,20.8769759 C10.6278479,19.9198221 11.3980754,19.144103 12.3477733,19.144103 C13.2974713,19.144103 14.0676988,19.9198221 14.0676988,20.8769759 C14.0676988,21.833445 13.2974713,22.6091641 12.3477733,22.6091641" id="Fill-228" fill="#0FB9BF"></path>
                    <path d="M23.8943197,8.65340979 C23.1682801,8.65340979 22.5795625,8.06049477 22.5795625,7.32927857 C22.5795625,6.5973777 23.1682801,6.00446268 23.8943197,6.00446268 C24.6203594,6.00446268 25.209077,6.5973777 25.209077,7.32927857 C25.209077,8.06049477 24.6203594,8.65340979 23.8943197,8.65340979" id="Fill-230" fill="#E75E34"></path>
                    <path d="M27.6384548,8.10670928 C26.8988188,8.10670928 26.2999041,7.50283972 26.2999041,6.75861498 C26.2999041,6.01370559 26.8988188,5.41052068 27.6384548,5.41052068 C28.3780907,5.41052068 28.9770055,6.01370559 28.9770055,6.75861498 C28.9770055,7.50283972 28.3780907,8.10670928 27.6384548,8.10670928" id="Fill-232" fill="#FFFFFF"></path>
                    <path d="M31.6760648,8.10670928 C30.9364289,8.10670928 30.3375141,7.50283972 30.3375141,6.75861498 C30.3375141,6.01370559 30.9364289,5.41052068 31.6760648,5.41052068 C32.4157008,5.41052068 33.0146155,6.01370559 33.0146155,6.75861498 C33.0146155,7.50283972 32.4157008,8.10670928 31.6760648,8.10670928" id="Fill-234" fill="#0FB9BF"></path>
                    <path d="M35.7137429,8.10670928 C34.9741069,8.10670928 34.3751922,7.50283972 34.3751922,6.75861498 C34.3751922,6.01370559 34.9741069,5.41052068 35.7137429,5.41052068 C36.4533788,5.41052068 37.0522936,6.01370559 37.0522936,6.75861498 C37.0522936,7.50283972 36.4533788,8.10670928 35.7137429,8.10670928" id="Fill-236" fill="#E75E34"></path>
                    <path d="M39.7513529,8.10670928 C39.011717,8.10670928 38.4128022,7.50283972 38.4128022,6.75861498 C38.4128022,6.01370559 39.011717,5.41052068 39.7513529,5.41052068 C40.4909888,5.41052068 41.0899036,6.01370559 41.0899036,6.75861498 C41.0899036,7.50283972 40.4909888,8.10670928 39.7513529,8.10670928" id="Fill-238" fill="#FFFFFF"></path>
                    <path d="M43.6921577,8.10670928 C42.9525217,8.10670928 42.353607,7.50283972 42.353607,6.75861498 C42.353607,6.01370559 42.9525217,5.41052068 43.6921577,5.41052068 C44.4317936,5.41052068 45.0307084,6.01370559 45.0307084,6.75861498 C45.0307084,7.50283972 44.4317936,8.10670928 43.6921577,8.10670928" id="Fill-240" fill="#0FB9BF"></path>
                    <path d="M47.7268445,8.10670928 C46.9872086,8.10670928 46.3882938,7.50283972 46.3882938,6.75861498 C46.3882938,6.01370559 46.9872086,5.41052068 47.7268445,5.41052068 C48.4664805,5.41052068 49.0653952,6.01370559 49.0653952,6.75861498 C49.0653952,7.50283972 48.4664805,8.10670928 47.7268445,8.10670928" id="Fill-242" fill="#E75E34"></path>
                    <path d="M74.6217884,11.9394324 C75.5198207,11.9394324 76.24722,11.2061623 76.24722,10.3024119 C76.24722,9.39797686 75.5198207,8.66470667 74.6217884,8.66470667 C73.7237562,8.66470667 72.9963569,9.39797686 72.9963569,10.3024119 C72.9963569,11.2061623 73.7237562,11.9394324 74.6217884,11.9394324" id="Fill-244" fill="#0FB9BF"></path>
                    <path d="M77.3891689,15.5066447 C78.3388669,15.5066447 79.1090944,14.7309256 79.1090944,13.7744565 C79.1090944,12.8173027 78.3388669,12.0415836 77.3891689,12.0415836 C76.4394709,12.0415836 75.6692434,12.8173027 75.6692434,13.7744565 C75.6692434,14.7309256 76.4394709,15.5066447 77.3891689,15.5066447" id="Fill-246" fill="#FFFFFF"></path>
                    <path d="M83.0503071,22.6091641 C84.000005,22.6091641 84.7702325,21.833445 84.7702325,20.8769759 C84.7702325,19.9198221 84.000005,19.144103 83.0503071,19.144103 C82.1006091,19.144103 81.3303816,19.9198221 81.3303816,20.8769759 C81.3303816,21.833445 82.1006091,22.6091641 83.0503071,22.6091641" id="Fill-248" fill="#0FB9BF"></path>
                    <path d="M85.8642547,26.1379669 C86.8139527,26.1379669 87.5841802,25.3622479 87.5841802,24.4057787 C87.5841802,23.4486249 86.8139527,22.6729059 85.8642547,22.6729059 C84.9145567,22.6729059 84.1443292,23.4486249 84.1443292,24.4057787 C84.1443292,25.3622479 84.9145567,26.1379669 85.8642547,26.1379669" id="Fill-250" fill="#FFFFFF"></path>
                    <path d="M71.5037607,8.65340979 C72.2298004,8.65340979 72.8185179,8.06049477 72.8185179,7.32927857 C72.8185179,6.5973777 72.2298004,6.00446268 71.5037607,6.00446268 C70.777721,6.00446268 70.1890034,6.5973777 70.1890034,7.32927857 C70.1890034,8.06049477 70.777721,8.65340979 71.5037607,8.65340979" id="Fill-252" fill="#E75E34"></path>
                    <path d="M67.7596256,8.10670928 C68.4992616,8.10670928 69.0981763,7.50283972 69.0981763,6.75861498 C69.0981763,6.01370559 68.4992616,5.41052068 67.7596256,5.41052068 C67.0199897,5.41052068 66.4210749,6.01370559 66.4210749,6.75861498 C66.4210749,7.50283972 67.0199897,8.10670928 67.7596256,8.10670928" id="Fill-254" fill="#FFFFFF"></path>
                    <path d="M63.7220156,8.10670928 C64.4616515,8.10670928 65.0605663,7.50283972 65.0605663,6.75861498 C65.0605663,6.01370559 64.4616515,5.41052068 63.7220156,5.41052068 C62.9823796,5.41052068 62.3834649,6.01370559 62.3834649,6.75861498 C62.3834649,7.50283972 62.9823796,8.10670928 63.7220156,8.10670928" id="Fill-256" fill="#0FB9BF"></path>
                    <path d="M59.6843376,8.10670928 C60.4239735,8.10670928 61.0228883,7.50283972 61.0228883,6.75861498 C61.0228883,6.01370559 60.4239735,5.41052068 59.6843376,5.41052068 C58.9447016,5.41052068 58.3457868,6.01370559 58.3457868,6.75861498 C58.3457868,7.50283972 58.9447016,8.10670928 59.6843376,8.10670928" id="Fill-258" fill="#E75E34"></path>
                    <path d="M55.6467275,8.10670928 C56.3863634,8.10670928 56.9852782,7.50283972 56.9852782,6.75861498 C56.9852782,6.01370559 56.3863634,5.41052068 55.6467275,5.41052068 C54.9070916,5.41052068 54.3081768,6.01370559 54.3081768,6.75861498 C54.3081768,7.50283972 54.9070916,8.10670928 55.6467275,8.10670928" id="Fill-260" fill="#FFFFFF"></path>
                    <path d="M51.7059227,8.10670928 C52.4455587,8.10670928 53.0444734,7.50283972 53.0444734,6.75861498 C53.0444734,6.01370559 52.4455587,5.41052068 51.7059227,5.41052068 C50.9662868,5.41052068 50.367372,6.01370559 50.367372,6.75861498 C50.367372,7.50283972 50.9662868,8.10670928 51.7059227,8.10670928" id="Fill-262" fill="#0FB9BF"></path>
                    <path d="M1.72509206,24.4000961 C0.775394075,24.4000961 0.00516657458,23.624377 0.00516657458,22.6679079 C0.00516657458,21.7107541 0.775394075,20.935035 1.72509206,20.935035 C2.67479005,20.935035 3.44501755,21.7107541 3.44501755,22.6679079 C3.44501755,23.624377 2.67479005,24.4000961 1.72509206,24.4000961" id="Fill-264" fill="#0FB9BF"></path>
                    <path d="M18.4506536,6.65783312 C17.5526214,6.65783312 16.8252221,5.92456294 16.8252221,5.02081257 C16.8252221,4.11637754 17.5526214,3.38310735 18.4506536,3.38310735 C19.3486858,3.38310735 20.0760852,4.11637754 20.0760852,5.02081257 C20.0760852,5.92456294 19.3486858,6.65783312 18.4506536,6.65783312" id="Fill-266" fill="#FFFFFF"></path>
                    <path d="M5.07017718,20.870677 C4.12047919,20.870677 3.35025169,20.0949579 3.35025169,19.1384888 C3.35025169,18.181335 4.12047919,17.4056159 5.07017718,17.4056159 C6.01987516,17.4056159 6.79010266,18.181335 6.79010266,19.1384888 C6.79010266,20.0949579 6.01987516,20.870677 5.07017718,20.870677" id="Fill-268" fill="#E75E34"></path>
                    <path d="M8.41533028,17.3412579 C7.46563229,17.3412579 6.69540479,16.5655389 6.69540479,15.6090697 C6.69540479,14.6519159 7.46563229,13.8761969 8.41533028,13.8761969 C9.36502826,13.8761969 10.1352558,14.6519159 10.1352558,15.6090697 C10.1352558,16.5655389 9.36502826,17.3412579 8.41533028,17.3412579" id="Fill-270" fill="#FFFFFF"></path>
                    <path d="M11.6608229,13.7161235 C10.7111249,13.7161235 9.94089738,12.9404044 9.94089738,11.9839353 C9.94089738,11.0267815 10.7111249,10.2510624 11.6608229,10.2510624 C12.6105209,10.2510624 13.3807484,11.0267815 13.3807484,11.9839353 C13.3807484,12.9404044 12.6105209,13.7161235 11.6608229,13.7161235" id="Fill-272" fill="#0FB9BF"></path>
                    <path d="M15.1469691,10.132274 C14.1972711,10.132274 13.4270436,9.35655496 13.4270436,8.40008582 C13.4270436,7.44293202 14.1972711,6.66721295 15.1469691,6.66721295 C16.0966671,6.66721295 16.8668946,7.44293202 16.8668946,8.40008582 C16.8668946,9.35655496 16.0966671,10.132274 15.1469691,10.132274" id="Fill-274" fill="#E75E34"></path>
                    <path d="M22.0916611,3.40426332 C21.3656214,3.40426332 20.7769038,2.81134831 20.7769038,2.0801321 C20.7769038,1.34823123 21.3656214,0.755316218 22.0916611,0.755316218 C22.8177008,0.755316218 23.4064184,1.34823123 23.4064184,2.0801321 C23.4064184,2.81134831 22.8177008,3.40426332 22.0916611,3.40426332" id="Fill-276" fill="#0FB9BF"></path>
                    <path d="M47.7268445,2.83948781 C46.9872086,2.83948781 46.3882938,2.23561824 46.3882938,1.49139351 C46.3882938,0.746484112 46.9872086,0.143299206 47.7268445,0.143299206 C48.4664805,0.143299206 49.0653952,0.746484112 49.0653952,1.49139351 C49.0653952,2.23561824 48.4664805,2.83948781 47.7268445,2.83948781" id="Fill-278" fill="#0FB9BF"></path>
                    <path d="M43.3912727,2.83948781 C42.6516367,2.83948781 42.052722,2.23561824 42.052722,1.49139351 C42.052722,0.746484112 42.6516367,0.143299206 43.3912727,0.143299206 C44.1309086,0.143299206 44.7298234,0.746484112 44.7298234,1.49139351 C44.7298234,2.23561824 44.1309086,2.83948781 43.3912727,2.83948781" id="Fill-280" fill="#FFFFFF"></path>
                    <path d="M39.1554293,2.83948781 C38.4157934,2.83948781 37.8168786,2.23561824 37.8168786,1.49139351 C37.8168786,0.746484112 38.4157934,0.143299206 39.1554293,0.143299206 C39.8950653,0.143299206 40.49398,0.746484112 40.49398,1.49139351 C40.49398,2.23561824 39.8950653,2.83948781 39.1554293,2.83948781" id="Fill-282" fill="#E75E34"></path>
                    <path d="M34.8155067,2.83948781 C34.0758707,2.83948781 33.476956,2.23561824 33.476956,1.49139351 C33.476956,0.746484112 34.0758707,0.143299206 34.8155067,0.143299206 C35.5551426,0.143299206 36.1540574,0.746484112 36.1540574,1.49139351 C36.1540574,2.23561824 35.5551426,2.83948781 34.8155067,2.83948781" id="Fill-284" fill="#0FB9BF"></path>
                    <path d="M30.4799348,2.83948781 C29.7402989,2.83948781 29.1413841,2.23561824 29.1413841,1.49139351 C29.1413841,0.746484112 29.7402989,0.143299206 30.4799348,0.143299206 C31.2195708,0.143299206 31.8184855,0.746484112 31.8184855,1.49139351 C31.8184855,2.23561824 31.2195708,2.83948781 30.4799348,2.83948781" id="Fill-286" fill="#FFFFFF"></path>
                    <path d="M26.1356614,2.83948781 C25.3960254,2.83948781 24.7971107,2.23561824 24.7971107,1.49139351 C24.7971107,0.746484112 25.3960254,0.143299206 26.1356614,0.143299206 C26.8752973,0.143299206 27.4742121,0.746484112 27.4742121,1.49139351 C27.4742121,2.23561824 26.8752973,2.83948781 26.1356614,2.83948781" id="Fill-288" fill="#E75E34"></path>
                    <path d="M93.6729883,24.4000961 C94.6226863,24.4000961 95.3929138,23.624377 95.3929138,22.6679079 C95.3929138,21.7107541 94.6226863,20.935035 93.6729883,20.935035 C92.7232904,20.935035 91.9530629,21.7107541 91.9530629,22.6679079 C91.9530629,23.624377 92.7232904,24.4000961 93.6729883,24.4000961" id="Fill-290" fill="#0FB9BF"></path>
                    <path d="M76.9474268,6.65783312 C77.845459,6.65783312 78.5728584,5.92456294 78.5728584,5.02081257 C78.5728584,4.11637754 77.845459,3.38310735 76.9474268,3.38310735 C76.0493946,3.38310735 75.3219952,4.11637754 75.3219952,5.02081257 C75.3219952,5.92456294 76.0493946,6.65783312 76.9474268,6.65783312" id="Fill-292" fill="#FFFFFF"></path>
                    <path d="M90.3279032,20.870677 C91.2776012,20.870677 92.0478287,20.0949579 92.0478287,19.1384888 C92.0478287,18.181335 91.2776012,17.4056159 90.3279032,17.4056159 C89.3782052,17.4056159 88.6079777,18.181335 88.6079777,19.1384888 C88.6079777,20.0949579 89.3782052,20.870677 90.3279032,20.870677" id="Fill-294" fill="#E75E34"></path>
                    <path d="M86.9827501,17.3412579 C87.9324481,17.3412579 88.7026756,16.5655389 88.7026756,15.6090697 C88.7026756,14.6519159 87.9324481,13.8761969 86.9827501,13.8761969 C86.0330521,13.8761969 85.2628246,14.6519159 85.2628246,15.6090697 C85.2628246,16.5655389 86.0330521,17.3412579 86.9827501,17.3412579" id="Fill-296" fill="#FFFFFF"></path>
                    <path d="M83.7372575,13.7161235 C84.6869555,13.7161235 85.457183,12.9404044 85.457183,11.9839353 C85.457183,11.0267815 84.6869555,10.2510624 83.7372575,10.2510624 C82.7875596,10.2510624 82.0173321,11.0267815 82.0173321,11.9839353 C82.0173321,12.9404044 82.7875596,13.7161235 83.7372575,13.7161235" id="Fill-298" fill="#0FB9BF"></path>
                    <path d="M80.2511113,10.132274 C81.2008093,10.132274 81.9710368,9.35655496 81.9710368,8.40008582 C81.9710368,7.44293202 81.2008093,6.66721295 80.2511113,6.66721295 C79.3014134,6.66721295 78.5311859,7.44293202 78.5311859,8.40008582 C78.5311859,9.35655496 79.3014134,10.132274 80.2511113,10.132274" id="Fill-300" fill="#E75E34"></path>
                    <path d="M73.3064193,3.40426332 C74.032459,3.40426332 74.6211766,2.81134831 74.6211766,2.0801321 C74.6211766,1.34823123 74.032459,0.755316218 73.3064193,0.755316218 C72.5803796,0.755316218 71.9916621,1.34823123 71.9916621,2.0801321 C71.9916621,2.81134831 72.5803796,3.40426332 73.3064193,3.40426332" id="Fill-302" fill="#0FB9BF"></path>
                    <path d="M52.0068077,2.83948781 C52.7464437,2.83948781 53.3453584,2.23561824 53.3453584,1.49139351 C53.3453584,0.746484112 52.7464437,0.143299206 52.0068077,0.143299206 C51.2671718,0.143299206 50.668257,0.746484112 50.668257,1.49139351 C50.668257,2.23561824 51.2671718,2.83948781 52.0068077,2.83948781" id="Fill-304" fill="#FFFFFF"></path>
                    <path d="M56.2426511,2.83948781 C56.982287,2.83948781 57.5812018,2.23561824 57.5812018,1.49139351 C57.5812018,0.746484112 56.982287,0.143299206 56.2426511,0.143299206 C55.5030151,0.143299206 54.9041004,0.746484112 54.9041004,1.49139351 C54.9041004,2.23561824 55.5030151,2.83948781 56.2426511,2.83948781" id="Fill-306" fill="#E75E34"></path>
                    <path d="M60.5825737,2.83948781 C61.3222097,2.83948781 61.9211244,2.23561824 61.9211244,1.49139351 C61.9211244,0.746484112 61.3222097,0.143299206 60.5825737,0.143299206 C59.8429378,0.143299206 59.244023,0.746484112 59.244023,1.49139351 C59.244023,2.23561824 59.8429378,2.83948781 60.5825737,2.83948781" id="Fill-308" fill="#0FB9BF"></path>
                    <path d="M64.9181456,2.83948781 C65.6577815,2.83948781 66.2566963,2.23561824 66.2566963,1.49139351 C66.2566963,0.746484112 65.6577815,0.143299206 64.9181456,0.143299206 C64.1785096,0.143299206 63.5795949,0.746484112 63.5795949,1.49139351 C63.5795949,2.23561824 64.1785096,2.83948781 64.9181456,2.83948781" id="Fill-310" fill="#FFFFFF"></path>
                    <path d="M69.262419,2.83948781 C70.002055,2.83948781 70.6009697,2.23561824 70.6009697,1.49139351 C70.6009697,0.746484112 70.002055,0.143299206 69.262419,0.143299206 C68.5227831,0.143299206 67.9238683,0.746484112 67.9238683,1.49139351 C67.9238683,2.23561824 68.5227831,2.83948781 69.262419,2.83948781" id="Fill-312" fill="#E75E34"></path>
                    <path d="M43.7502816,25.5209519 C43.7502816,26.7122592 45.2825789,27.7303477 47.1928519,27.8823421 L47.1928519,23.1595617 C45.2825789,23.3115561 43.7502816,24.3303293 43.7502816,25.5209519" id="Fill-314" fill="#35B89E"></path>
                    <polygon id="Fill-316" fill="#35B89E" points="69.1451514 29.852244 75.0663178 29.852244 71.0866957 23.3301789 69.7800962 21.1899337 65.2953735 21.1899337"></polygon>
                    <path d="M78.3537548,35.2403079 L77.4149338,33.7018783 L75.6712149,30.8447947 L68.5066715,30.8447947 L63.7751769,20.1976568 L69.1749272,20.1976568 L67.4529622,17.3748063 L67.4529622,17.3748063 C67.2367819,17.0208374 66.7214841,16.7305418 66.3088379,16.7305418 L48.17824,16.7305418 L48.17824,22.1619446 C50.6976249,22.3262628 52.6065383,23.7421384 52.6065383,25.5208835 C52.6065383,27.2996285 50.6976249,28.7155041 48.17824,28.880507 L48.17824,35.8845724 L77.9961735,35.8845724 C78.4088196,35.8845724 78.5699352,35.5949614 78.3537548,35.2403079" id="Fill-318" fill="#35B89E"></path>
                    <polygon id="Fill-320" fill="#35B89E" points="30.0757863 21.1896598 25.6773998 21.1896598 20.391858 29.8519702 26.2260084 29.8519702"></polygon>
                    <path d="M28.0052816,17.3750801 L26.2833166,20.197246 L31.5960509,20.197246 L26.8645563,30.8443839 L19.7863491,30.8443839 L17.104489,35.2405817 C16.8883086,35.5945506 17.0494242,35.8848462 17.4620703,35.8848462 L47.1929878,35.8848462 L47.1929878,28.8800962 C44.6736029,28.7157779 42.7653694,27.2992177 42.7653694,25.5211573 C42.7653694,23.7424123 44.6736029,22.3265367 47.1929878,22.1622184 L47.1929878,16.7308157 L29.1494059,16.7308157 C28.7367598,16.7308157 28.2214619,17.0204266 28.0052816,17.3750801" id="Fill-322" fill="#35B89E"></path>
                    <path d="M51.6209462,25.5209519 C51.6209462,24.3303293 50.0886489,23.3115561 48.178376,23.1595617 L48.178376,27.8823421 C50.0886489,27.7303477 51.6209462,26.7122592 51.6209462,25.5209519" id="Fill-324" fill="#35B89E"></path>
                </g>
            </g>
        </g>
    </g>
</svg>